<?xml version="1.0" encoding="UTF-8"?>
<svg width="141px" height="32px" viewBox="0 0 141 32" version="1.1" xmlns="http://www.w3.org/2000/svg" xmlns:xlink="http://www.w3.org/1999/xlink">
    <title>logo@3x</title>
    <g id="页面-1" stroke="none" stroke-width="1" fill="none" fill-rule="evenodd">
        <g id="5.1-Default" transform="translate(-650.000000, -20.000000)" fill-rule="nonzero">
            <g id="编组" transform="translate(650.000000, 20.000000)">
                <g id="logo黑色底">
                    <polygon id="路径" fill="#EA4E34" points="60.815246 20.8333333 55.9625067 15.9666667 54.4555685 14.46 51.1827908 11.1666667 46.3300515 6.30666667 44.8231133 4.8 41.5436972 1.51333333 40.036759 0 39.2866091 0.753333333 38.5364592 0 33.7501049 4.8 29.6541539 8.90666667 25.5582029 4.8 22.2787868 1.51333333 20.7718486 0 20.0216987 0.753333333 19.2649104 0 14.4851945 4.8 9.63245519 9.66 4.84610082 14.46 0 19.32 1.5069382 20.8333333 3.0138764 22.34 3.0138764 22.34 4.84610082 24.18 6.35303902 25.6933333 7.79359228 27.14 7.85997722 27.2 12.6463316 32 17.432686 27.2 22.2787868 22.34 24.1176497 24.18 25.6245879 25.6933333 27.0651411 27.14 27.1315261 27.2 31.911242 32 36.6975963 27.2 36.7639813 27.14 41.5503356 22.34 43.3161751 24.12 43.3825601 24.18 44.8894983 25.6933333 46.3300515 27.14 46.3964365 27.2 51.1827908 32 55.9625067 27.2 56.0288917 27.14 60.815246 22.34 60.0584577 21.5866667"></polygon>
                    <polygon id="路径" fill="#2539F4" points="63.9751693 20.8333333 59.1290685 15.9666667 57.6221303 14.46 54.3427141 11.1666667 49.4966133 6.30666667 47.9896751 4.8 44.7102589 1.51333333 43.2033207 0 42.4531709 0.753333333 41.6963825 0 36.9100282 4.8 32.8140772 8.90666667 28.7247647 4.8 25.4453485 1.51333333 23.9384103 0 23.181622 0.753333333 22.4314721 0 17.6451178 4.8 12.799017 9.66 8.01266259 14.46 3.15992327 19.32 4.66686147 20.8333333 6.17379967 22.34 6.17379967 22.34 8.01266259 24.18 9.51960079 25.6933333 10.960154 27.14 11.026539 27.2 15.8062549 32 20.5926092 27.2 25.4453485 22.34 27.277573 24.18 28.7845112 25.6933333 30.2250644 27.14 30.2914494 27.2 35.0778037 32 39.8641581 27.2 39.9239046 27.14 44.7102589 22.34 46.4827369 24.12 46.5424833 24.18 48.0494215 25.6933333 49.4966133 27.14 49.5563597 27.2 54.3427141 32 59.1290685 27.2 59.1954534 27.14 63.9751693 22.34 63.2250194 21.5866667"></polygon>
                    <g id="编组" transform="translate(8.178625, 6.773333)">
                        <polygon id="路径" fill="#9BA4B2" points="9.63245519 19.38 4.78635437 14.52 9.63245519 9.66 14.4851945 14.52"></polygon>
                        <polygon id="路径" fill="#5B637C" points="4.85273931 24.18 0 19.32 4.85273931 14.4533333 9.69884013 19.32"></polygon>
                        <polygon id="路径" fill="#D6EAFA" points="19.2649104 9.72 14.4188096 4.86 19.2649104 -1.78369911e-15 24.1176497 4.86"></polygon>
                        <polygon id="路径" fill="#B6C6E0" points="14.4851945 14.52 9.63245519 9.66 14.4851945 4.79333333 19.3312953 9.66"></polygon>
                        <polygon id="路径" fill="#9BA4B2" points="38.5962057 19.38 43.448945 14.52 38.5962057 9.66 33.7501049 14.52"></polygon>
                        <polygon id="路径" fill="#5B637C" points="43.3825601 24.18 48.2352994 19.32 43.3825601 14.4533333 38.5364592 19.32"></polygon>
                        <polygon id="路径" fill="#D6EAFA" points="28.9637505 9.72 33.8164898 4.86 28.9637505 -1.78369911e-15 24.1176497 4.86"></polygon>
                        <polygon id="路径" fill="#B6C6E0" points="33.7501049 14.52 38.5962057 9.66 33.7501049 4.79333333 28.8973656 9.66"></polygon>
                        <polygon id="路径" fill="#9BA4B2" points="19.3312953 19.38 24.1840346 14.52 19.3312953 9.66 14.4851945 14.52"></polygon>
                        <polygon id="路径" fill="#B6C6E0" points="24.1176497 14.4533333 28.9040041 9.66 24.1176497 4.86 19.3312953 9.66"></polygon>
                        <polygon id="路径" fill="#9BA4B2" points="28.9040041 19.38 33.7501049 14.52 28.9040041 9.66 24.0512647 14.52"></polygon>
                        <polygon id="路径" fill="#5B637C" points="24.1176497 24.18 28.9637505 19.32 24.1176497 14.4533333 19.2649104 19.32"></polygon>
                    </g>
                    <polygon id="路径" fill="#B6C6E0" points="13.0313643 21.2266667 8.24500989 16.4333333 13.0313643 11.6333333 17.8110801 16.4333333"></polygon>
                    <polygon id="路径" fill="#9BA4B2" points="8.24500989 26.1533333 3.39227057 21.2933333 8.24500989 16.4333333 13.0911107 21.2933333"></polygon>
                    <polygon id="路径" fill="#FFFFFF" points="22.6638194 11.5666667 17.8774651 6.77333333 22.6638194 1.97333333 27.4435353 6.77333333"></polygon>
                    <polygon id="路径" fill="#D6EAFA" points="17.8774651 16.4933333 13.0313643 11.6333333 17.8774651 6.77333333 22.7235659 11.6333333"></polygon>
                    <polygon id="路径" fill="#B6C6E0" points="51.561185 21.2266667 56.3475394 16.4333333 51.561185 11.6333333 46.7748306 16.4333333"></polygon>
                    <polygon id="路径" fill="#9BA4B2" points="56.3475394 26.1533333 61.1936402 21.2933333 56.3475394 16.4333333 51.4948001 21.2933333"></polygon>
                    <polygon id="路径" fill="#FFFFFF" points="41.9287298 11.5666667 46.7150842 6.77333333 41.9287298 1.97333333 37.1423755 6.77333333"></polygon>
                    <polygon id="路径" fill="#D6EAFA" points="46.7150842 16.4933333 51.561185 11.6333333 46.7150842 6.77333333 41.8623449 11.6333333"></polygon>
                </g>
                <path d="M88.3481018,24.5774646 C88.2066969,24.2550607 88.0100874,23.9601072 87.7672229,23.7060302 C87.5039836,23.4317909 87.190443,23.2113337 86.8438857,23.0568115 C86.4483155,22.8806083 86.0193805,22.7928941 85.5867598,22.7997384 L83.6707266,22.7997384 C83.2957018,22.8019002 82.924677,22.877374 82.5783276,23.0219541 C82.2271423,23.167189 81.9042769,23.3737036 81.624646,23.6319583 C81.3523284,23.8802174 81.1262607,24.1753191 80.9570688,24.5033927 C80.7875808,24.8427067 80.6999632,25.2173667 80.7013087,25.597043 L80.7013087,27.8192008 C80.6968804,28.198644 80.7784121,28.5741253 80.9397291,28.9172082 C81.0931956,29.2503548 81.3147501,29.5472774 81.5899666,29.7886427 C81.8687371,30.0316562 82.1888784,30.2220703 82.5349785,30.3507179 C82.9031462,30.4915792 83.294137,30.5624961 83.6880663,30.5599329 L88.2527336,30.5599329 L88.2527336,28.5163484 L84.1258929,28.5163484 C83.8538285,28.5305785 83.5833114,28.4671338 83.3456079,28.3333471 C83.1724708,28.2057654 83.0813142,27.994196 83.1071875,27.7799863 L83.1071875,27.6056994 L88.5475079,27.6056994 L88.5475079,25.5403997 C88.5437816,25.2085656 88.4729899,24.8809553 88.3394319,24.5774646 L88.3481018,24.5774646 Z M83.2025556,25.5403997 C83.2501838,25.4133745 83.3190925,25.2954808 83.4062967,25.1918259 C83.4927403,25.0963258 83.5974083,25.019274 83.7140758,24.965253 C83.8369092,24.9053952 83.972069,24.8755372 84.1085532,24.8781095 L85.1489332,24.8781095 C85.4314759,24.8605581 85.7073758,24.9689346 85.9032087,25.1743972 C86.0648526,25.3521039 86.1625386,25.5791624 86.1806434,25.8192587 L83.1462017,25.8192587 C83.1517532,25.7240923 83.1707274,25.6302012 83.2025556,25.5403997 Z M93.4719733,22.791024 L95.049883,22.791024 L95.049883,24.8824667 L93.4719733,24.8824667 L93.4719733,30.5467906 L91.0660945,30.5467906 L91.0660945,24.8824667 L89.4838499,24.8824667 L89.4838499,22.791024 L91.0660945,22.791024 L91.0660945,20.3205073 L93.4719733,20.3205073 L93.4719733,22.791024 Z M141,22.791024 L141,24.8824667 L139.417755,24.8824667 L139.417755,30.5467906 L137.011877,30.5467906 L137.011877,24.8824667 L135.429632,24.8824667 L135.429632,22.791024 L137.011877,22.791024 L137.011877,20.3205073 L139.417755,20.3205073 L139.417755,22.791024 L141,22.791024 Z M76.574468,20.337936 L79.3531496,20.337936 L79.3531496,30.5162904 L77.2767245,30.5162904 L77.2767245,25.2310405 C77.1033278,25.8889735 76.9255963,26.5381922 76.7478647,27.2004823 C76.4574253,28.2462037 76.1799906,29.3093537 75.9242305,30.3594322 L75.8852162,30.5162904 L73.7177579,30.5162904 L72.4172829,25.2136118 L72.4172829,30.5162904 L70.3408578,30.5162904 L70.3408578,20.337936 L73.1195394,20.337936 L74.8535061,26.9826237 C75.1107111,25.9920932 75.3679162,25.0030151 75.6251212,24.0153894 C75.9314554,22.8534768 76.2377895,21.6799451 76.5441236,20.4947942 L76.574468,20.337936 Z M109.407127,27.8279152 L111.808671,27.8279152 L111.773992,28.0719168 C111.684525,28.7809983 111.316038,29.4244531 110.750951,29.8583574 C110.091344,30.326357 109.294442,30.558062 108.488125,30.5162904 L107.798873,30.5162904 C107.333542,30.5218576 106.87011,30.4557329 106.424704,30.3202177 C106.03299,30.2037524 105.669779,30.0063741 105.358315,29.7407138 C105.068458,29.4875874 104.835059,29.1757808 104.673398,28.8257076 C104.505717,28.4520613 104.421382,28.0460695 104.426308,27.6361996 L104.426308,25.6711149 C104.420036,25.2597107 104.504417,24.8520089 104.673398,24.4772497 C104.838469,24.1294491 105.076575,23.821741 105.37132,23.575315 C105.685248,23.3167367 106.045854,23.1214537 106.433374,23.0001683 C106.879316,22.8595281 107.344526,22.7904752 107.811878,22.7953812 L108.488125,22.7953812 C109.3019,22.7529974 110.106303,22.9861983 110.772626,23.4576714 C111.34477,23.9016143 111.703724,24.5678235 111.760987,25.2920409 L111.786996,25.5273282 L109.411462,25.5273282 L109.368113,25.3791843 C109.320869,25.2247931 109.219119,25.0930784 109.082008,25.0088247 C108.900406,24.9097648 108.694084,24.8658666 108.488125,24.8824667 L107.798873,24.8824667 C107.528915,24.8686666 107.263395,24.9555587 107.053267,25.1264683 L107.053267,25.1264683 C106.874305,25.2749393 106.77484,25.4990779 106.784502,25.7321153 L106.784502,27.596985 C106.775448,27.8323959 106.874548,28.0589262 107.053267,28.2113463 C107.261735,28.3861263 107.527675,28.4762642 107.798873,28.4640623 L108.488125,28.4640623 C108.692075,28.4708598 108.894123,28.4227209 109.073339,28.3246328 C109.205131,28.257989 109.303878,28.1398285 109.346438,27.9978449 L109.407127,27.8279152 Z M103.147507,24.5077499 C103.009601,24.1769572 102.80264,23.8797819 102.540619,23.6363154 C102.255158,23.3663523 101.919209,23.1560467 101.552258,23.017597 C101.105418,22.8598935 100.634271,22.7831788 100.16075,22.791024 L99.1507142,22.791024 C98.6931558,22.7839228 98.2375922,22.8531235 97.8025551,22.9958111 C97.4311261,23.1115143 97.0852842,23.2978964 96.7838497,23.5448148 C96.5234791,23.7653155 96.3122592,24.0384904 96.1639566,24.3465345 C96.0256729,24.6434858 95.9377624,24.9615883 95.9038616,25.2876837 L95.8778521,25.522971 L98.2187071,25.522971 L98.2663912,25.37047 C98.3085641,25.2088946 98.4130971,25.0708927 98.5568306,24.9870388 C98.8291386,24.8665709 99.1277046,24.8185551 99.4238139,24.8476093 L99.8573056,24.8476093 C100.078421,24.8414704 100.299168,24.8693892 100.511878,24.9303956 C100.630313,24.9646041 100.737867,25.0291678 100.823992,25.117754 C100.892229,25.2028717 100.939731,25.3028401 100.962709,25.4096845 C100.988847,25.5299983 101.003364,25.652568 101.006059,25.775687 L98.3400848,25.775687 C97.9853851,25.7713566 97.632858,25.8318892 97.2997047,25.9543311 C97.0069534,26.0644755 96.7388081,26.2318161 96.5107499,26.4466915 C96.2986003,26.6562933 96.1331185,26.9087606 96.0252392,27.1874108 C95.9149266,27.4781519 95.8590779,27.7868968 95.8604694,28.0980598 C95.8587439,28.4155835 95.9115385,28.7310296 96.0165694,29.0304947 C96.1184944,29.3210695 96.2844701,29.584717 96.5020801,29.8017142 C96.732136,30.0278855 97.0047786,30.2056427 97.3040397,30.3245749 C97.6455559,30.4563924 98.0089695,30.5214625 98.3747641,30.5162904 L103.364253,30.5162904 L103.364253,25.496828 C103.361345,25.1573494 103.293652,24.8215855 103.164847,24.5077499 L103.147507,24.5077499 Z M98.4267831,28.6165633 C98.3312208,28.615756 98.2408515,28.5727298 98.1796928,28.4989197 C98.021152,28.2554355 98.021152,27.9406841 98.1796928,27.6972 C98.2382728,27.621948 98.3274062,27.5771525 98.4224482,27.5751992 L100.988719,27.5751992 L100.988719,28.6165633 L98.4267831,28.6165633 Z M133.69133,20.337936 L134.497625,20.337936 L134.497625,22.2681633 L133.682661,22.2681633 C133.398473,22.2525278 133.11825,22.3407406 132.893706,22.5165222 C132.709051,22.6655033 132.604715,22.8929943 132.611936,23.1308835 L132.611936,23.2354556 L134.497625,23.2354556 L134.497625,25.3181839 L132.611936,25.3181839 L132.611936,30.5467906 L130.444478,30.5467906 L130.444478,25.3181839 L128.909917,25.3181839 L128.909917,23.2485271 L130.444478,23.2485271 L130.444478,23.2180269 C130.436435,22.8094962 130.510142,22.4035059 130.661224,22.0241617 C130.804513,21.6702673 131.028766,21.3552986 131.315796,21.1047984 C131.615087,20.849853 131.959105,20.6533174 132.330167,20.5252944 C132.769654,20.3825069 133.229509,20.3133218 133.69133,20.3205073 L133.69133,20.337936 Z M118.783552,22.9522394 L119.217044,22.9522394 L119.217044,25.1308255 L118.783552,25.1308255 C118.378688,25.1276449 117.976023,25.1909302 117.59145,25.3181839 C117.196197,25.4427161 116.818772,25.6184826 116.468706,25.8410446 C116.161953,26.0285214 115.889276,26.2672343 115.662412,26.5469065 C115.491593,26.7415683 115.392166,26.9891075 115.380642,27.2484112 L115.380642,30.4988617 L112.870726,30.4988617 L112.870726,22.7343808 L115.380642,22.7343808 L115.380642,23.9587462 C115.478109,23.8777528 115.580939,23.8035099 115.688421,23.7365304 C115.975451,23.5560983 116.282407,23.4098746 116.603089,23.3008132 C116.946608,23.1781355 117.300694,23.087701 117.660808,23.0306685 C118.032074,22.9699621 118.407419,22.9379159 118.783552,22.9348107 L118.783552,22.9522394 Z M127.561758,24.5077499 C127.423844,24.1780604 127.218559,23.8811706 126.959205,23.6363154 C126.667071,23.3675226 126.325413,23.1588109 125.953504,23.0219541 C125.505158,22.864279 125.032595,22.7875726 124.557661,22.7953812 L123.547625,22.7953812 C123.090089,22.7886006 122.634577,22.8577934 122.199466,23.0001683 C121.837976,23.1206709 121.501519,23.3067461 121.20677,23.549172 C120.946421,23.7686236 120.736425,24.042128 120.591212,24.3508917 C120.453279,24.6482698 120.363988,24.9660705 120.326782,25.2920409 L120.300773,25.5273282 L122.645963,25.5273282 L122.689312,25.3748272 C122.731485,25.2132518 122.836018,25.0752498 122.979751,24.991396 C123.252439,24.8722289 123.550668,24.8242673 123.846735,24.8519665 L124.280226,24.8519665 C124.501342,24.8458276 124.722089,24.8737464 124.934799,24.9347528 C125.053728,24.9678064 125.161565,25.0325396 125.246913,25.1221112 C125.318165,25.2058461 125.367353,25.3062267 125.389965,25.4140417 C125.416103,25.5343555 125.43062,25.6569252 125.433314,25.7800442 L122.76734,25.7800442 C122.411262,25.7761466 122.05739,25.836658 121.722625,25.9586883 C121.430635,26.0677551 121.163707,26.2352566 120.938006,26.4510487 C120.723047,26.6583141 120.55713,26.9114458 120.452495,27.191768 C120.3387,27.4816516 120.281309,27.7907916 120.283376,28.102417 C120.283751,28.4197679 120.336487,28.7348637 120.43949,29.0348519 C120.54295,29.3257019 120.710393,29.5893266 120.929336,29.8060714 C121.15707,30.0330633 121.428478,30.210977 121.72696,30.328932 C122.069977,30.4607798 122.434814,30.5258413 122.80202,30.5206476 L127.787174,30.5206476 L127.787174,25.496828 C127.786373,25.157131 127.718598,24.8209619 127.587768,24.5077499 L127.561758,24.5077499 Z M122.836699,28.6165633 C122.742659,28.614492 122.654121,28.5715847 122.593944,28.4989197 C122.503898,28.386024 122.461835,28.2419619 122.476901,28.0980598 C122.464116,27.9543745 122.505934,27.8111526 122.593944,27.6972 C122.652917,27.6224339 122.741807,27.5777607 122.836699,27.5751992 L125.3943,27.5751992 L125.3943,28.6165633 L122.836699,28.6165633 Z" id="形状" fill="#FFFFFF"></path>
            </g>
        </g>
    </g>
</svg>