<?xml version="1.0" encoding="UTF-8"?>
<svg width="40px" height="40px" viewBox="0 0 40 40" version="1.1" xmlns="http://www.w3.org/2000/svg" xmlns:xlink="http://www.w3.org/1999/xlink">
    <title>tag_on</title>
    <g id="页面-1" stroke="none" stroke-width="1" fill="none" fill-rule="evenodd">
        <g id="5.2-On" transform="translate(-368.000000, -969.000000)">
            <g id="编组-4" transform="translate(272.000000, 513.000000)">
                <g id="Part-2" transform="translate(0.000000, 305.000000)">
                    <g id="PNG-1" transform="translate(0.000000, 151.000000)">
                        <g id="编组" transform="translate(96.000000, 0.000000)">
                            <path d="M0,0 L25,0 C33.2842712,-1.52179594e-15 40,6.71572875 40,15 L40,40 L40,40 L0,0 Z" id="矩形" fill="#2539F4"></path>
                            <path d="M25.6531433,17 C25.3892858,17.0028923 25.1254283,16.8966153 24.9220381,16.6811093 L22.3068251,13.9060995 C21.901419,13.4765634 21.8972962,12.7769067 22.2972053,12.3414663 C22.6984886,11.906026 23.3498869,11.9015978 23.755293,12.3311339 L25.6380265,14.3267792 L30.2362938,9.32880949 C30.6362029,8.89336913 31.2889754,8.89041699 31.6943815,9.31995307 C32.0984134,9.74948916 32.1025362,10.4491459 31.7026271,10.8845862 L26.3801258,16.6707768 C26.1794842,16.889235 25.9170009,16.9984641 25.6531433,17" id="Fill-4" fill="#FFFFFF"></path>
                        </g>
                    </g>
                </g>
            </g>
        </g>
    </g>
</svg>