<?xml version="1.0" encoding="UTF-8"?>
<svg width="130px" height="130px" viewBox="0 0 130 130" version="1.1" xmlns="http://www.w3.org/2000/svg" xmlns:xlink="http://www.w3.org/1999/xlink">
    <title>png_success</title>
    <g id="页面-1" stroke="none" stroke-width="1" fill="none" fill-rule="evenodd">
        <g id="6.注册成功" transform="translate(-663.000000, -190.000000)">
            <g id="编组-3" transform="translate(240.000000, 142.000000)">
                <g id="编组-2" transform="translate(0.000000, 48.000000)">
                    <g id="png_success" transform="translate(423.000000, 0.000000)">
                        <path d="M129.947175,28.1320066 C130.27628,29.9802035 129.044813,31.7452558 127.196616,32.0743613 C127.192823,32.0750368 127.189028,32.0757059 127.185232,32.0763685 L116.429348,33.9539335 C114.571897,34.2781733 112.802104,33.0389188 112.471549,31.1825811 C112.142443,29.3343841 113.37391,27.5693318 115.222107,27.2402264 C115.225901,27.2395508 115.229696,27.2388817 115.233492,27.2382191 L125.989375,25.3606541 C127.846827,25.0364143 129.61662,26.2756688 129.947175,28.1320066 Z M116.330259,8.57500001 C117.773199,9.77392679 117.97101,11.9155824 116.772083,13.3585217 L116.750697,13.3840055 L116.750697,13.3840055 L109.789971,21.596438 C108.561533,23.0457787 106.394936,23.2351981 104.933634,22.0210136 C103.490695,20.8220868 103.292884,18.6804312 104.49181,17.237492 C104.498897,17.2289625 104.506026,17.2204678 104.513196,17.2120081 L111.473922,8.99957559 C112.70236,7.55023488 114.868957,7.36081556 116.330259,8.57500001 Z M93.4506189,0 C95.3563431,-3.50075856e-16 96.9012378,1.54489471 96.9012378,3.45061891 L96.9012378,14.090747 C96.9012378,15.9964712 95.3563431,17.5413659 93.4506189,17.5413659 C91.5448947,17.5413659 90,15.9964712 90,14.090747 L90,3.45061891 C90,1.54489471 91.5448947,3.50075856e-16 93.4506189,0 Z" id="Combined-Shape" fill="#26C165"></path>
                        <g id="Group" transform="translate(0.000000, 16.000000)">
                            <circle id="Oval" fill="#26C165" cx="57" cy="57" r="57"></circle>
                            <polyline id="Path-4" stroke="#FFFFFF" stroke-width="10" stroke-linecap="round" stroke-linejoin="round" points="35.9405941 57.6 51.0533765 72 77.8712871 43.2"></polyline>
                        </g>
                    </g>
                </g>
            </g>
        </g>
    </g>
</svg>